Finding Forrester (2000)

( Sean Connery )

User Rating: 7.2 

Awards(4 wins & 8 nominations): 
http://www.imdb.com/title/tt0181536/awards

user comments: 
http://www.imdb.com/title/tt0181536/usercomments




In an ordinary place, he found the one person to make his life

 extraordinary. 

An afro-american teen writing prodigy finds a mentor in a reclusive author.

summary: 
http://www.imdb.com/title/tt0181536/plotsummary 



Format                           : Matroska (mkv)
File size                        : 2.63 GiB
Duration                         : 2h 10mn
Overall bit rate                 : 2 880 Kbps


Video
Format/Info                      : AVC (Advanced Video Codec)
Codec ID                         : V_MPEG4/ISO/AVC
Nominal bit rate                 : 2 400 Kbps
Width                            : 720 pixels
Height                           : 432 pixels
Display aspect ratio             : 2.35:1
Frame rate                       : 25.000 fps
Stream size                      : 2.17 GiB (82%)
Writing library                  : x264 core 79

Audio 1 ( English )
Format                           : AC-3
Bit rate mode                    : Constant
Bit rate                         : 448 Kbps
Channel(s)                       : 6 channels
Channel positions                : Front: L C R, Surround: L R, LFE
Sampling rate                    : 48.0 KHz
Stream size                      : 419 MiB (16%)
Language                         : English

Audio 2 ( Magyar ) (separate AC3), Constant 192 Kbps, 179 MB.
 
Skip from download if you don't want it!


Subtitles:

 English, Arabic, Bulgarian, Croatian, Czech, Danish, Dutch

 Estonian, Finnish, French, Greek, Hebrew, Hindi, Hungarian

 Icelandic, Italian, Norwegian, Polish, Portuguese(Brasil)

 Portuguese, Romanian, Slovenian, Spanish, Swedish, Turkish

screen shots: 
http://i.imagehost.org/0538/Finding_Forrester_2000_mkv1.jpg
 
http://i.imagehost.org/0564/Finding_Forrester_2000_mkv2.jpg
 
http://i.imagehost.org/0056/Finding_Forrester_2000_mkv3.jpg